<svg width="130" height="47" viewBox="0 0 130 47" fill="none" xmlns="http://www.w3.org/2000/svg">
<path d="M57.2525 22.2272V20.8687C56.4062 21.5323 54.8962 22.4677 52.9051 22.4677C51.2437 22.4677 50.188 21.804 49.4932 21.078C48.7671 20.2941 48.2549 19.087 48.2549 17.6349C48.2549 16.3966 48.6157 15.1271 49.7025 14.1026C51.0032 12.8644 52.7225 12.5303 54.1701 12.5303C55.1679 12.5303 56.4329 12.7129 57.2525 12.8644C57.2525 12.2318 56.9808 11.7463 56.7714 11.4746C56.2592 10.8421 55.2303 10.3878 53.7514 10.3878C53.0566 10.3878 52.2726 10.5081 51.6089 10.6595C50.6112 10.9 49.4932 11.4123 48.6513 11.8978V6.40123C52.0054 4.53044 55.5376 4.25873 57.6177 4.25873C60.366 4.25873 62.6911 4.98477 64.2011 6.34332C66.3169 8.24529 66.3169 10.8109 66.3169 12.7753V22.2272H57.2569H57.2525ZM57.2525 15.822C56.8605 15.7017 56.3171 15.5814 55.9251 15.5814C54.7492 15.5814 54.2325 16.3966 54.2325 17.1226C54.2325 17.8487 54.7759 18.6326 55.8316 18.6326C56.4953 18.6326 56.9808 18.3609 57.2525 18.1204V15.8264V15.822Z" fill="black"/>
<path d="M78.7538 22.2268C76.3084 22.2268 73.4978 22.1065 71.0836 20.8059C70.117 20.2936 66.8877 18.3293 66.8877 13.1044C66.8877 9.81274 68.2151 7.91077 69.244 6.85511C71.5068 4.52998 74.2862 4.25827 75.6759 4.25827C77.1859 4.25827 78.2104 4.59234 79.03 4.98432V0H88.09V22.2268H78.7583H78.7538ZM79.0255 11.8082C78.393 11.5054 77.8763 11.4474 77.6046 11.4474C76.9721 11.4474 76.4866 11.5989 76.0635 11.9909C75.7027 12.3249 75.431 12.7748 75.431 13.4697C75.431 14.3472 75.8541 14.8282 76.157 15.0688C76.6692 15.4607 77.5155 15.6745 78.2104 15.6434L79.0255 15.6122V11.8082Z" fill="black"/>
<path d="M89.8346 27.1178L93.4871 18.2984L87.5674 4.61938H97.1708L98.4981 7.8799L100.039 4.61938H109.309L99.6473 27.1178H89.8346Z" fill="black"/>
<path d="M127.49 18.7832C127.49 20.3555 127.338 21.4112 127.009 22.3466C126.648 23.3711 126.104 24.1595 125.467 24.7608C123.174 26.9657 119.49 27.1171 117.223 27.1171C114.537 27.1171 113.325 26.8454 111.788 26.4222C110.581 26.0882 109.343 25.7274 107.713 24.6405V16.85C108.287 17.4558 109.223 18.271 110.519 18.9658C111.846 19.6607 113.298 20.0838 115.107 20.0838C117.009 20.0838 117.641 19.6607 117.886 19.4513C118.612 18.8456 118.639 17.9413 118.492 17.0059C117.766 17.4603 117.102 17.7008 116.653 17.8211C116.078 17.9725 115.477 18.0928 114.688 18.0928C113.209 18.0928 111.187 17.732 109.615 16.1908C108.105 14.712 107.682 12.81 107.682 11.2689C107.682 8.82347 108.858 7.2823 109.401 6.7077C111.272 4.68547 114.051 4.62311 116.617 4.62311H127.49V18.7876V18.7832ZM118.43 9.57179H118.22C117.677 9.57179 116.831 9.69205 116.287 10.0261C115.744 10.3602 115.352 10.9615 115.352 11.7455C115.352 12.1374 115.472 12.5918 115.775 12.9526C116.198 13.496 116.804 13.6474 117.254 13.6474C117.526 13.6474 117.918 13.5895 118.43 13.2555V9.57179Z" fill="black"/>
<path d="M66.3132 36.9529C66.3132 37.4072 66.3132 38.2536 66.7675 38.6723C67.008 38.9128 67.4312 39.0331 67.7964 39.0331C68.4601 39.0331 69.3064 38.7302 69.9701 37.8839V44.8013C69.4579 45.1042 68.7318 45.465 67.7964 45.7367C66.7675 46.0084 65.5337 46.191 64.5938 46.191C61.4224 46.191 59.5204 44.4984 58.8879 43.8659C57.2888 42.2357 57.0171 40.1511 57.0171 37.8883V33.2381H53.8457L66.3176 23.3318V28.2226H69.9701V33.2336H66.3176V36.9485L66.3132 36.9529Z" fill="black"/>
<path d="M72.2913 30.5524C74.3759 28.5881 76.9416 27.8665 79.2043 27.8665C81.2266 27.8665 83.9169 28.4411 86.1797 30.6148C88.1707 32.5168 89.017 34.9042 89.017 37.0467C89.017 40.6413 86.9013 42.7838 85.908 43.6925C84.6697 44.8105 82.5272 46.2002 79.2043 46.2002C76.7589 46.2002 74.1309 45.3539 72.1087 43.3629C70.2691 41.5812 69.3916 39.256 69.3916 37.0512C69.3916 35.1492 70.0865 32.6415 72.2913 30.5569V30.5524ZM79.2088 38.8596C80.2956 38.8596 81.1998 37.9554 81.1998 36.8062C81.1998 35.7194 80.2956 34.8152 79.2088 34.8152C78.1219 34.8152 77.2177 35.7194 77.2177 36.8062C77.2177 37.9554 78.1219 38.8596 79.2088 38.8596Z" fill="black"/>
<path d="M109.768 45.8345H101.011V44.1419C100.588 44.565 99.9864 45.0461 99.4386 45.349C98.3517 45.9815 97.1758 46.1953 95.9063 46.1953C93.8218 46.1953 92.2539 45.741 91.0735 44.476C89.7149 42.9971 89.5635 41.3669 89.5635 40.0351V28.2268H97.8974V38.828C97.8974 39.3402 98.0177 40.0662 98.3517 40.4582C98.6546 40.819 99.1669 40.9705 99.6791 40.9705C99.7994 40.9705 100.16 40.9393 100.557 40.7299C100.739 40.6408 100.891 40.5206 101.011 40.3691V28.2313H109.768V45.8345Z" fill="black"/>
<path d="M111.639 28.2268H120.699V31.4873C121.18 30.4895 121.999 29.4339 122.841 28.8014C123.745 28.1065 124.712 27.866 125.741 27.866C127.099 27.866 128.275 28.4094 129.033 29.3136C129.576 29.9773 129.999 30.9439 129.999 32.0619C129.999 33.2378 129.607 34.5073 128.823 35.3536C128.097 36.1375 126.952 36.623 125.714 36.623C124.988 36.623 124.173 36.4137 123.509 36.0796C123.028 35.8391 122.422 35.4159 121.968 35.0551C121.487 35.358 121.215 35.75 121.064 36.0796C120.73 36.8369 120.703 37.9237 120.703 39.2199V45.8345H111.643V28.2312L111.639 28.2268Z" fill="black"/>
<path d="M8.35547 31.3542L16.7161 45.835H24.0033L11.9991 25.047L8.35547 31.3542Z" fill="black"/>
<path d="M36.0037 25.047L24.0039 45.835H31.2911L39.6473 31.3542L36.0037 25.047Z" fill="black"/>
<path d="M29.7875 14.2752L24.0058 24.2928L18.2198 14.2752L14.5762 20.5869L24.0058 36.9117L33.4311 20.5869L29.7875 14.2752Z" fill="black"/>
<path d="M29.7865 14.2763L24.0048 4.25867L18.2188 14.2763H29.7865Z" fill="black"/>
<path d="M48.0081 45.8335L42.2221 35.8159L36.4404 45.8335H48.0081Z" fill="black"/>
<path d="M11.5677 45.8338L5.78163 35.8162L0 45.8338H11.5677Z" fill="black"/>
</svg>
