<svg width="130" height="47" viewBox="0 0 130 47" fill="none" xmlns="http://www.w3.org/2000/svg">
<path d="M57.2535 22.2272V20.8687C56.4072 21.5324 54.8972 22.4678 52.9061 22.4678C51.2447 22.4678 50.189 21.8041 49.4941 21.078C48.7681 20.2941 48.2559 19.087 48.2559 17.6349C48.2559 16.3966 48.6167 15.1271 49.7035 14.1027C51.0041 12.8644 52.7235 12.5303 54.1711 12.5303C55.1689 12.5303 56.4339 12.7129 57.2535 12.8644C57.2535 12.2319 56.9818 11.7464 56.7724 11.4746C56.2602 10.8421 55.2312 10.3878 53.7524 10.3878C53.0576 10.3878 52.2736 10.5081 51.6099 10.6595C50.6122 10.9 49.4941 11.4123 48.6523 11.8978V6.40123C52.0064 4.53044 55.5386 4.25873 57.6187 4.25873C60.367 4.25873 62.6921 4.98477 64.2021 6.34333C66.3179 8.2453 66.3179 10.811 66.3179 12.7753V22.2272H57.2579H57.2535ZM57.2535 15.822C56.8615 15.7017 56.3181 15.5815 55.9261 15.5815C54.7502 15.5815 54.2335 16.3966 54.2335 17.1227C54.2335 17.8487 54.7769 18.6327 55.8326 18.6327C56.4963 18.6327 56.9818 18.3609 57.2535 18.1204V15.8265V15.822Z" fill="white"/>
<path d="M78.7543 22.2268C76.309 22.2268 73.4983 22.1066 71.0841 20.8059C70.1175 20.2937 66.8882 18.3293 66.8882 13.1045C66.8882 9.81276 68.2156 7.91079 69.2445 6.85513C71.5073 4.53 74.2867 4.25828 75.6764 4.25828C77.1864 4.25828 78.2109 4.59235 79.0305 4.98433V0H88.0905V22.2268H78.7588H78.7543ZM79.0261 11.8083C78.3936 11.5054 77.8769 11.4475 77.6051 11.4475C76.9726 11.4475 76.4871 11.5989 76.064 11.9909C75.7032 12.325 75.4315 12.7749 75.4315 13.4697C75.4315 14.3472 75.8546 14.8283 76.1575 15.0688C76.6698 15.4608 77.5161 15.6746 78.2109 15.6434L79.0261 15.6122V11.8083Z" fill="white"/>
<path d="M89.8356 27.1179L93.4881 18.2984L87.5684 4.61938H97.1718L98.4991 7.87991L100.04 4.61938H109.31L99.6483 27.1179H89.8356Z" fill="white"/>
<path d="M127.491 18.7832C127.491 20.3556 127.34 21.4112 127.01 22.3466C126.649 23.3711 126.106 24.1595 125.469 24.7609C123.175 26.9657 119.491 27.1172 117.224 27.1172C114.538 27.1172 113.327 26.8455 111.79 26.4223C110.583 26.0882 109.345 25.7274 107.714 24.6406V16.8501C108.289 17.4559 109.224 18.271 110.52 18.9659C111.848 19.6607 113.3 20.0839 115.108 20.0839C117.01 20.0839 117.643 19.6607 117.888 19.4514C118.614 18.8456 118.641 17.9414 118.494 17.006C117.768 17.4603 117.104 17.7008 116.654 17.8211C116.079 17.9726 115.478 18.0928 114.69 18.0928C113.211 18.0928 111.189 17.732 109.616 16.1908C108.106 14.712 107.683 12.8101 107.683 11.2689C107.683 8.82348 108.859 7.28231 109.402 6.70771C111.273 4.68547 114.053 4.62311 116.618 4.62311H127.491V18.7877V18.7832ZM118.431 9.5718H118.222C117.678 9.5718 116.832 9.69207 116.289 10.0261C115.745 10.3602 115.353 10.9615 115.353 11.7455C115.353 12.1375 115.474 12.5918 115.777 12.9526C116.2 13.496 116.805 13.6475 117.255 13.6475C117.527 13.6475 117.919 13.5896 118.431 13.2555V9.5718Z" fill="white"/>
<path d="M66.3147 36.9531C66.3147 37.4074 66.3147 38.2537 66.769 38.6724C67.0095 38.913 67.4327 39.0332 67.7979 39.0332C68.4616 39.0332 69.3079 38.7303 69.9716 37.884V44.8015C69.4594 45.1044 68.7333 45.4652 67.7979 45.7369C66.769 46.0086 65.5352 46.1912 64.5953 46.1912C61.4239 46.1912 59.5219 44.4986 58.8894 43.8661C57.2903 42.2358 57.0186 40.1512 57.0186 37.8885V33.2382H53.8472L66.3191 23.3319V28.2227H69.9716V33.2338H66.3191V36.9486L66.3147 36.9531Z" fill="white"/>
<path d="M72.2918 30.5525C74.3764 28.5882 76.9421 27.8666 79.2048 27.8666C81.2271 27.8666 83.9174 28.4412 86.1802 30.6149C88.1713 32.5168 89.0176 34.9043 89.0176 37.0468C89.0176 40.6414 86.9018 42.7839 85.9085 43.6926C84.6702 44.8106 82.5277 46.2003 79.2048 46.2003C76.7594 46.2003 74.1314 45.354 72.1092 43.363C70.2696 41.5813 69.3921 39.2561 69.3921 37.0513C69.3921 35.1493 70.087 32.6415 72.2918 30.557V30.5525ZM79.2093 38.8597C80.2961 38.8597 81.2003 37.9555 81.2003 36.8063C81.2003 35.7194 80.2961 34.8152 79.2093 34.8152C78.1225 34.8152 77.2182 35.7194 77.2182 36.8063C77.2182 37.9555 78.1225 38.8597 79.2093 38.8597Z" fill="white"/>
<path d="M109.769 45.8346H101.012V44.1419C100.589 44.5651 99.9875 45.0461 99.4396 45.349C98.3527 45.9815 97.1768 46.1953 95.9073 46.1953C93.8227 46.1953 92.2548 45.741 91.0745 44.476C89.7159 42.9972 89.5645 41.3669 89.5645 40.0351V28.2268H97.8984V38.828C97.8984 39.3402 98.0187 40.0663 98.3527 40.4582C98.6556 40.819 99.1679 40.9705 99.6801 40.9705C99.8004 40.9705 100.161 40.9393 100.558 40.73C100.74 40.6409 100.892 40.5206 101.012 40.3692V28.2313H109.769V45.8346Z" fill="white"/>
<path d="M111.64 28.2268H120.7V31.4874C121.181 30.4896 122 29.4339 122.842 28.8014C123.746 28.1066 124.713 27.866 125.742 27.866C127.1 27.866 128.276 28.4094 129.034 29.3137C129.577 29.9774 130 30.9439 130 32.062C130 33.2379 129.608 34.5074 128.824 35.3537C128.098 36.1376 126.953 36.6231 125.715 36.6231C124.989 36.6231 124.174 36.4138 123.51 36.0797C123.029 35.8392 122.423 35.416 121.969 35.0552C121.488 35.3581 121.216 35.7501 121.065 36.0797C120.731 36.8369 120.704 37.9238 120.704 39.22V45.8346H111.644V28.2313L111.64 28.2268Z" fill="white"/>
<path d="M8.35547 31.3543L16.7161 45.8351H24.0033L11.9991 25.0471L8.35547 31.3543Z" fill="white"/>
<path d="M36.0047 25.0471L24.0049 45.8351H31.2921L39.6483 31.3543L36.0047 25.0471Z" fill="white"/>
<path d="M29.787 14.2753L24.0054 24.2929L18.2193 14.2753L14.5757 20.587L24.0054 36.9118L33.4306 20.587L29.787 14.2753Z" fill="white"/>
<path d="M29.787 14.2763L24.0053 4.25867L18.2192 14.2763H29.787Z" fill="white"/>
<path d="M48.0077 45.8336L42.2216 35.816L36.4399 45.8336H48.0077Z" fill="white"/>
<path d="M11.5677 45.834L5.78164 35.8163L0 45.834H11.5677Z" fill="white"/>
</svg>
