<svg width="24" height="24" viewBox="0 0 24 24" fill="none" xmlns="http://www.w3.org/2000/svg">
<path d="M19.1352 4.90999C18.2137 3.9841 17.1162 3.24996 15.9066 2.75036C14.697 2.25075 13.3996 1.99568 12.09 1.99999C6.60257 1.99999 2.13021 6.44999 2.13021 11.91C2.13021 13.66 2.59252 15.36 3.45684 16.86L2.0498 22L7.32619 20.62C8.78347 21.41 10.4217 21.83 12.09 21.83C17.5774 21.83 22.0498 17.38 22.0498 11.92C22.0498 9.26999 21.0146 6.77999 19.1352 4.90999ZM12.09 20.15C10.6026 20.15 9.14528 19.75 7.8689 19L7.56739 18.82L4.43171 19.64L5.26588 16.6L5.06488 16.29C4.23829 14.9771 3.79948 13.4593 3.79855 11.91C3.79855 7.36999 7.51714 3.66999 12.08 3.66999C14.291 3.66999 16.3714 4.52999 17.9292 6.08999C18.7007 6.85386 19.312 7.76254 19.7278 8.76332C20.1436 9.76411 20.3555 10.8371 20.3513 11.92C20.3714 16.46 16.6528 20.15 12.09 20.15ZM16.6327 13.99C16.3815 13.87 15.1553 13.27 14.9342 13.18C14.7031 13.1 14.5423 13.06 14.3714 13.3C14.2006 13.55 13.7282 14.11 13.5875 14.27C13.4468 14.44 13.296 14.46 13.0448 14.33C12.7935 14.21 11.9895 13.94 11.0448 13.1C10.3011 12.44 9.8086 11.63 9.65784 11.38C9.51714 11.13 9.63774 11 9.7684 10.87C9.87895 10.76 10.0197 10.58 10.1403 10.44C10.2609 10.3 10.3111 10.19 10.3915 10.03C10.4719 9.85999 10.4317 9.71999 10.3714 9.59999C10.3111 9.47999 9.8086 8.25999 9.60759 7.75999C9.40659 7.27999 9.19553 7.33999 9.04478 7.32999H8.56237C8.39151 7.32999 8.13021 7.38999 7.89905 7.63999C7.67794 7.88999 7.03473 8.48999 7.03473 9.70999C7.03473 10.93 7.9292 12.11 8.0498 12.27C8.17041 12.44 9.8086 14.94 12.3011 16.01C12.894 16.27 13.3563 16.42 13.7181 16.53C14.3111 16.72 14.8538 16.69 15.286 16.63C15.7684 16.56 16.7634 16.03 16.9644 15.45C17.1754 14.87 17.1754 14.38 17.1051 14.27C17.0347 14.16 16.884 14.11 16.6327 13.99Z" fill="black"/>
</svg>
